<svg width="532" height="532" viewBox="0 0 532 532" fill="none" xmlns="http://www.w3.org/2000/svg">
<rect x="0.5" y="0.5" width="531" height="531" fill="#615FFF"/>
<rect x="0.5" y="0.5" width="531" height="531" stroke="black"/>
<path d="M108.062 376.5H115.656V408.094C115.635 410.219 115.229 412.177 114.438 413.969C113.667 415.74 112.594 417.271 111.219 418.562C109.865 419.854 108.26 420.854 106.406 421.562C104.573 422.271 102.583 422.625 100.438 422.625C98.2292 422.625 96.2083 422.323 94.375 421.719C92.5625 421.094 91 420.198 89.6875 419.031C88.375 417.865 87.3333 416.417 86.5625 414.688C85.8125 412.958 85.3958 410.969 85.3125 408.719H92.875C92.8958 409.885 93.0625 410.938 93.375 411.875C93.6875 412.792 94.125 413.573 94.6875 414.219C95.3333 414.969 96.1354 415.531 97.0938 415.906C98.0521 416.281 99.1667 416.469 100.438 416.469C101.604 416.469 102.656 416.25 103.594 415.812C104.531 415.375 105.333 414.781 106 414.031C106.646 413.281 107.146 412.396 107.5 411.375C107.875 410.333 108.062 409.24 108.062 408.094V376.5ZM151.844 401.594H133.031V415.812H155V422H125.5V376.5H154.844V382.719H133.031V395.531H151.844V401.594ZM195.812 382.719H181.781V422H174.312V382.719H160.375V376.5H195.812V382.719ZM271.125 408C270.917 410.208 270.396 412.219 269.562 414.031C268.729 415.823 267.635 417.354 266.281 418.625C264.906 419.917 263.271 420.917 261.375 421.625C259.5 422.312 257.417 422.656 255.125 422.656C253.25 422.656 251.521 422.406 249.938 421.906C248.375 421.385 246.979 420.656 245.75 419.719C244.562 418.844 243.521 417.792 242.625 416.562C241.75 415.312 241.01 413.948 240.406 412.469C239.802 411.01 239.344 409.427 239.031 407.719C238.74 406.01 238.594 404.229 238.594 402.375V396.156C238.594 394.385 238.74 392.677 239.031 391.031C239.323 389.385 239.76 387.833 240.344 386.375C240.969 384.75 241.771 383.281 242.75 381.969C243.75 380.635 244.896 379.5 246.188 378.562C247.417 377.708 248.771 377.042 250.25 376.562C251.75 376.083 253.385 375.844 255.156 375.844C257.552 375.844 259.688 376.198 261.562 376.906C263.458 377.615 265.073 378.615 266.406 379.906C267.76 381.219 268.823 382.802 269.594 384.656C270.385 386.51 270.896 388.573 271.125 390.844H263.625C263.5 389.49 263.24 388.271 262.844 387.188C262.469 386.083 261.948 385.146 261.281 384.375C260.594 383.604 259.75 383.021 258.75 382.625C257.75 382.208 256.552 382 255.156 382C254.177 382 253.292 382.135 252.5 382.406C251.729 382.677 251.042 383.062 250.438 383.562C249.604 384.167 248.906 384.958 248.344 385.938C247.802 386.896 247.354 387.969 247 389.156C246.729 390.198 246.521 391.312 246.375 392.5C246.25 393.667 246.188 394.865 246.188 396.094V402.375C246.188 403.896 246.271 405.323 246.438 406.656C246.625 407.99 246.906 409.208 247.281 410.312C247.573 411.229 247.938 412.062 248.375 412.812C248.833 413.562 249.375 414.208 250 414.75C250.646 415.333 251.385 415.781 252.219 416.094C253.073 416.385 254.042 416.531 255.125 416.531C256.417 416.531 257.562 416.344 258.562 415.969C259.562 415.594 260.417 415.042 261.125 414.312C261.812 413.604 262.365 412.719 262.781 411.656C263.198 410.594 263.469 409.375 263.594 408H271.125ZM309.688 402.281C309.688 404.115 309.521 405.885 309.188 407.594C308.875 409.302 308.417 410.917 307.812 412.438C307.167 413.958 306.365 415.365 305.406 416.656C304.448 417.927 303.344 419.021 302.094 419.938C300.885 420.771 299.542 421.427 298.062 421.906C296.604 422.385 295 422.625 293.25 422.625C291.438 422.625 289.771 422.375 288.25 421.875C286.75 421.354 285.406 420.646 284.219 419.75C283.01 418.833 281.948 417.729 281.031 416.438C280.135 415.146 279.385 413.729 278.781 412.188C278.198 410.708 277.76 409.135 277.469 407.469C277.177 405.781 277.031 404.052 277.031 402.281V396.281C277.031 394.427 277.188 392.635 277.5 390.906C277.812 389.177 278.281 387.542 278.906 386C279.51 384.521 280.25 383.167 281.125 381.938C282.021 380.688 283.073 379.604 284.281 378.688C285.448 377.792 286.771 377.104 288.25 376.625C289.75 376.125 291.396 375.875 293.188 375.875C295 375.875 296.667 376.125 298.188 376.625C299.708 377.125 301.073 377.823 302.281 378.719C303.49 379.615 304.542 380.667 305.438 381.875C306.333 383.083 307.083 384.406 307.688 385.844C308.354 387.385 308.854 389.042 309.188 390.812C309.521 392.562 309.688 394.385 309.688 396.281V402.281ZM302.125 396.219C302.104 395.073 302.031 393.948 301.906 392.844C301.802 391.74 301.615 390.688 301.344 389.688C301.031 388.542 300.615 387.5 300.094 386.562C299.594 385.604 298.979 384.792 298.25 384.125C297.604 383.542 296.865 383.083 296.031 382.75C295.198 382.417 294.25 382.25 293.188 382.25C292.167 382.25 291.25 382.417 290.438 382.75C289.625 383.062 288.917 383.5 288.312 384.062C287.583 384.75 286.969 385.573 286.469 386.531C285.969 387.469 285.583 388.521 285.312 389.688C285.062 390.688 284.875 391.75 284.75 392.875C284.646 393.979 284.594 395.094 284.594 396.219V402.281C284.594 403.385 284.646 404.479 284.75 405.562C284.854 406.646 285.031 407.688 285.281 408.688C285.552 409.812 285.917 410.865 286.375 411.844C286.854 412.802 287.427 413.615 288.094 414.281C288.74 414.906 289.479 415.406 290.312 415.781C291.167 416.135 292.146 416.312 293.25 416.312C294.312 416.312 295.271 416.135 296.125 415.781C297 415.427 297.75 414.948 298.375 414.344C299.104 413.656 299.708 412.844 300.188 411.906C300.688 410.948 301.083 409.896 301.375 408.75C301.625 407.75 301.802 406.708 301.906 405.625C302.031 404.521 302.104 403.406 302.125 402.281V396.219ZM344.656 402.625H325.406V422H317.844V376.5H347.406V382.719H325.406V396.438H344.656V402.625ZM383.094 402.625H363.844V422H356.281V376.5H385.844V382.719H363.844V396.438H383.094V402.625ZM420.906 401.594H402.094V415.812H424.062V422H394.562V376.5H423.906V382.719H402.094V395.531H420.906V401.594ZM459.344 401.594H440.531V415.812H462.5V422H433V376.5H462.344V382.719H440.531V395.531H459.344V401.594Z" fill="white"/>
<g clip-path="url(#clip0_35_31)">
<path d="M189.125 228C198.013 234.099 211.366 237.662 226.604 237.5C241.842 237.662 255.195 234.099 264.083 228C272.971 221.901 286.325 218.339 301.563 218.5C316.8 218.339 330.154 221.901 339.042 228" stroke="white" stroke-width="6" stroke-linecap="round" stroke-linejoin="round"/>
<path d="M242.667 123.5C239.278 125.658 236.532 128.516 234.666 131.826C232.801 135.136 231.871 138.8 231.959 142.5C231.871 146.2 232.801 149.864 234.666 153.174C236.532 156.484 239.278 159.342 242.667 161.5" stroke="white" stroke-width="7" stroke-linecap="round" stroke-linejoin="round"/>
<path d="M285.5 123.5C282.111 125.658 279.365 128.516 277.499 131.826C275.634 135.136 274.704 138.8 274.792 142.5C274.704 146.2 275.634 149.864 277.499 153.174C279.365 156.484 282.111 159.342 285.5 161.5" stroke="white" stroke-width="6" stroke-linecap="round" stroke-linejoin="round"/>
<path d="M189.125 190H339.042V237.5C339.042 252.617 332.272 267.116 320.223 277.805C308.174 288.495 291.832 294.5 274.792 294.5H253.375C236.335 294.5 219.993 288.495 207.943 277.805C195.894 267.116 189.125 252.617 189.125 237.5V190Z" stroke="white" stroke-width="6" stroke-linecap="round" stroke-linejoin="round"/>
<path d="M336.321 253.897C341.104 255.845 346.352 256.721 351.605 256.447C356.858 256.174 361.955 254.76 366.448 252.33C370.941 249.899 374.692 246.527 377.372 242.509C380.051 238.491 381.578 233.951 381.816 229.288C382.054 224.624 380.998 219.98 378.739 215.763C376.481 211.547 373.089 207.887 368.863 205.106C364.637 202.325 359.705 200.507 354.501 199.813C349.297 199.119 343.981 199.569 339.02 201.125" stroke="white" stroke-width="6" stroke-linecap="round" stroke-linejoin="round"/>
</g>
<defs>
<clipPath id="clip0_35_31">
<rect width="257" height="228" fill="white" transform="translate(157 95)"/>
</clipPath>
</defs>
</svg>
