<svg width="800" height="500" viewBox="0 0 800 500" xmlns="http://www.w3.org/2000/svg">
  <!-- Dashboard background -->
  <rect width="800" height="500" fill="#f8f9fa" rx="10" ry="10" />
  
  <!-- Sidebar -->
  <rect x="0" y="0" width="200" height="500" fill="rgb(99 102 241)" rx="10" ry="10" />
  
  <!-- Sidebar logo area -->
  <rect x="40" y="30" width="120" height="40" fill="rgb(129 140 248)" rx="5" ry="5" />
  <text x="59" y="55" font-family="Arial" font-size="16" font-weight="bold" fill="#ffffff">JETADMIN</text>
  
  <!-- Sidebar menu items -->
  <rect x="25" y="100" width="150" height="40" fill="rgb(129 140 248)" rx="5" ry="5" />
  <text x="60" y="125" font-family="Arial" font-size="14" fill="#ffffff">Dashboard</text>
  
  <rect x="25" y="150" width="150" height="40" fill="transparent" rx="5" ry="5" stroke="rgb(129 140 248)" stroke-width="2" />
  <text x="60" y="175" font-family="Arial" font-size="14" fill="#ffffff">Analytics</text>
  
  <rect x="25" y="200" width="150" height="40" fill="transparent" rx="5" ry="5" stroke="rgb(129 140 248)" stroke-width="2" />
  <text x="60" y="225" font-family="Arial" font-size="14" fill="#ffffff">Orders</text>
  
  <rect x="25" y="250" width="150" height="40" fill="transparent" rx="5" ry="5" stroke="rgb(129 140 248)" stroke-width="2" />
  <text x="60" y="275" font-family="Arial" font-size="14" fill="#ffffff">Products</text>
  
  <rect x="25" y="300" width="150" height="40" fill="transparent" rx="5" ry="5" stroke="rgb(129 140 248)" stroke-width="2" />
  <text x="60" y="325" font-family="Arial" font-size="14" fill="#ffffff">Customers</text>
  
  <!-- Main content area -->
  <rect x="220" y="20" width="560" height="80" fill="#ffffff" rx="5" ry="5" />
  <text x="250" y="50" font-family="Arial" font-size="18" font-weight="bold" fill="#333333">Dashboard Overview</text>
  <text x="250" y="80" font-family="Arial" font-size="14" fill="#555555">Welcome back! Here's your business at a glance.</text>
  
  <!-- Stat cards -->
  <rect x="220" y="120" width="170" height="120" fill="#ffffff" rx="5" ry="5" />
  <text x="240" y="150" font-family="Arial" font-size="14" fill="#555555">Total Sales</text>
  <text x="240" y="185" font-family="Arial" font-size="24" font-weight="bold" fill="rgb(99 102 241)">$12,543</text>
  <text x="240" y="210" font-family="Arial" font-size="12" fill="#28a745">↑ 12.5% since last month</text>
  
  <rect x="410" y="120" width="170" height="120" fill="#ffffff" rx="5" ry="5" />
  <text x="430" y="150" font-family="Arial" font-size="14" fill="#555555">Orders</text>
  <text x="430" y="185" font-family="Arial" font-size="24" font-weight="bold" fill="rgb(99 102 241)">1,243</text>
  <text x="430" y="210" font-family="Arial" font-size="12" fill="#28a745">↑ 8.3% since last month</text>
  
  <rect x="600" y="120" width="170" height="120" fill="#ffffff" rx="5" ry="5" />
  <text x="620" y="150" font-family="Arial" font-size="14" fill="#555555">Customers</text>
  <text x="620" y="185" font-family="Arial" font-size="24" font-weight="bold" fill="rgb(99 102 241)">857</text>
  <text x="620" y="210" font-family="Arial" font-size="12" fill="#28a745">↑ 5.7% since last month</text>
  
  <!-- Chart area -->
  <rect x="220" y="260" width="560" height="220" fill="#ffffff" rx="5" ry="5" />
  <text x="240" y="290" font-family="Arial" font-size="16" font-weight="bold" fill="#333333">Sales Analytics</text>
  
  <!-- Line chart -->
  <polyline points="250,400 310,380 370,390 430,350 490,330 550,340 610,320 670,310" 
            fill="none" stroke="rgb(99 102 241)" stroke-width="3" />
  
  <!-- Bar chart -->
  <rect x="270" y="420" width="40" height="40" fill="rgb(129 140 248)" />
  <rect x="330" y="400" width="40" height="60" fill="rgb(129 140 248)" />
  <rect x="390" y="410" width="40" height="50" fill="rgb(129 140 248)" />
  <rect x="450" y="370" width="40" height="90" fill="rgb(129 140 248)" />
  <rect x="510" y="350" width="40" height="110" fill="rgb(129 140 248)" />
  <rect x="570" y="360" width="40" height="100" fill="rgb(129 140 248)" />
  <rect x="630" y="330" width="40" height="130" fill="rgb(129 140 248)" />
  
  <!-- X-axis -->
  <line x1="250" y1="460" x2="670" y2="460" stroke="#cccccc" stroke-width="1" />
  
  <!-- Y-axis -->
  <line x1="250" y1="310" x2="250" y2="460" stroke="#cccccc" stroke-width="1" />
</svg> 